<svg width="827" height="546" viewBox="0 0 827 546" fill="none" xmlns="http://www.w3.org/2000/svg">
<g clip-path="url(#clip0_21_305)">
<path d="M693.563 0.419585C688.87 4.8552 681.622 4.72033 677.087 0C681.751 4.88517 681.751 12.7824 677.072 17.6525C681.737 12.7824 689.301 12.7824 693.98 17.6376C689.459 12.9022 689.329 5.33472 693.578 0.43457C693.578 0.43457 693.578 0.43457 693.563 0.419585Z" fill="#F85D28"/>
<path d="M770.048 173.319C769.732 179.927 764.522 185.172 758.121 185.187C764.723 185.202 770.063 190.776 770.063 197.67C770.063 190.776 775.416 185.187 782.004 185.187C775.603 185.172 770.378 179.927 770.077 173.319H770.063H770.048Z" fill="#F7B433"/>
<path d="M698.142 346.967C693.894 342.067 694.023 334.499 698.544 329.764C693.865 334.634 686.301 334.634 681.637 329.749C686.301 334.619 686.301 342.516 681.651 347.401C686.186 342.681 693.435 342.546 698.128 346.982C698.128 346.982 698.128 346.982 698.142 346.967Z" fill="#FFCA84"/>
<path d="M782.937 485.445C778.689 480.545 778.818 472.977 783.339 468.242C778.66 473.112 771.096 473.112 766.432 468.227C771.096 473.097 771.096 480.994 766.446 485.879C770.981 481.159 778.23 481.024 782.923 485.46C782.923 485.46 782.923 485.46 782.937 485.445Z" fill="#FFCA84"/>
<path d="M121.366 0.419585C126.06 4.8552 133.308 4.72033 137.843 0C133.179 4.88517 133.179 12.7824 137.858 17.6525C133.193 12.7824 125.629 12.7824 120.95 17.6376C125.471 12.9022 125.6 5.33472 121.352 0.43457C121.352 0.43457 121.352 0.43457 121.366 0.419585Z" fill="#FFCA84"/>
<path d="M66.1223 476.993C70.8156 481.429 78.0637 481.294 82.5991 476.574C77.9345 481.459 77.9345 489.356 82.6135 494.226C77.9489 489.356 70.385 489.356 65.7061 494.211C70.2271 489.476 70.3563 481.908 66.1079 477.008C66.1079 477.008 66.1079 477.008 66.1223 476.993Z" fill="#FFCA84"/>
<path d="M44.8806 173.319C45.1963 179.927 50.4063 185.172 56.8076 185.187C50.2054 185.202 44.8662 190.776 44.8662 197.67C44.8662 190.776 39.5127 185.187 32.9248 185.187C39.3261 185.172 44.5505 179.927 44.8519 173.319H44.8662H44.8806Z" fill="#F7B433"/>
<path d="M815.073 5.46959C815.389 12.0781 820.599 17.3229 827 17.3379C820.398 17.3528 815.059 22.9273 815.059 29.8205C815.059 22.9273 809.705 17.3379 803.117 17.3379C809.518 17.3229 814.743 12.0781 815.044 5.46959H815.059H815.073Z" fill="#F7B433"/>
<path d="M129.59 365.384C133.839 360.483 133.71 352.916 129.188 348.181C133.867 353.051 141.431 353.051 146.096 348.166C141.431 353.036 141.431 360.933 146.082 365.818C141.546 361.098 134.298 360.963 129.605 365.399C129.605 365.399 129.605 365.399 129.59 365.384Z" fill="#F4B031"/>
<path d="M0.401874 63.6421C4.65026 58.7419 4.52109 51.1594 0 46.4391C4.67897 51.3093 12.2428 51.3093 16.9074 46.4241C12.2428 51.2943 12.2428 59.1915 16.8931 64.0766C12.3576 59.3563 5.10955 59.2214 0.416227 63.657C0.416227 63.657 0.416227 63.657 0.401874 63.6421Z" fill="#F4B031"/>
<path d="M628.043 545.55C632.292 540.65 632.163 533.083 627.642 528.347C632.321 533.218 639.884 533.218 644.549 528.333C639.884 533.203 639.884 541.1 644.535 545.985C639.999 541.265 632.751 541.13 628.058 545.565C628.058 545.58 628.058 545.565 628.043 545.55C628.043 545.565 628.043 545.565 628.043 545.55Z" fill="#F4B031"/>
</g>
<defs>
<clipPath id="clip0_21_305">
<rect width="827" height="546" fill="white"/>
</clipPath>
</defs>
</svg>
