<svg width="1680" height="1050" viewBox="0 0 1680 1050" fill="none" xmlns="http://www.w3.org/2000/svg">
<path d="M442.887 1032.24C445.747 1032.24 448.066 1029.92 448.066 1027.06C448.066 1024.2 445.747 1021.88 442.887 1021.88C440.027 1021.88 437.709 1024.2 437.709 1027.06C437.709 1029.92 440.027 1032.24 442.887 1032.24Z" fill="#653194"/>
<path d="M528.981 1011.04C531.841 1011.04 534.16 1008.72 534.16 1005.86C534.16 1003 531.841 1000.68 528.981 1000.68C526.121 1000.68 523.803 1003 523.803 1005.86C523.803 1008.72 526.121 1011.04 528.981 1011.04Z" fill="#653194"/>
<path d="M498.125 1038.9C496.792 1038.9 495.702 1039.99 495.702 1041.32C495.702 1042.66 496.792 1043.75 498.125 1043.75C499.457 1043.75 500.547 1042.66 500.547 1041.32C500.547 1039.99 499.457 1038.9 498.125 1038.9Z" fill="#653194"/>
<path d="M454.093 924.885C452.76 924.885 451.67 925.976 451.67 927.308C451.67 928.641 452.76 929.731 454.093 929.731C455.425 929.731 456.515 928.641 456.515 927.308C456.515 925.976 455.425 924.885 454.093 924.885Z" fill="#653194"/>
<path d="M388.194 912.772C388.194 915.649 385.862 917.951 383.015 917.951C380.138 917.951 377.837 915.619 377.837 912.772C377.837 909.895 380.169 907.594 383.015 907.594C385.862 907.564 388.194 909.895 388.194 912.772Z" fill="#653194"/>
<path d="M334.957 805.57C336.017 808.235 334.715 811.263 332.05 812.323C329.385 813.383 326.357 812.081 325.297 809.416C324.237 806.751 325.539 803.723 328.204 802.663C330.899 801.603 333.897 802.905 334.957 805.57Z" fill="#653194"/>
<path d="M197.745 871.406C198.805 874.07 197.503 877.099 194.838 878.159C192.173 879.219 189.145 877.916 188.085 875.251C187.025 872.587 188.327 869.558 190.992 868.498C193.687 867.438 196.685 868.741 197.745 871.406Z" fill="#653194"/>
<path d="M250.953 844.635C251.438 845.877 250.832 847.3 249.591 847.785C248.349 848.269 246.926 847.663 246.441 846.422C245.957 845.18 246.562 843.757 247.804 843.272C249.046 842.758 250.469 843.394 250.953 844.635Z" fill="#653194"/>
<path d="M331.203 867.378C331.688 868.619 331.082 870.043 329.841 870.527C328.599 871.012 327.176 870.406 326.691 869.164C326.207 867.923 326.812 866.5 328.054 866.015C329.265 865.531 330.689 866.136 331.203 867.378Z" fill="#653194"/>
<path d="M92.1484 883.973C94.0866 886.093 93.9351 889.363 91.8456 891.301C89.7258 893.24 86.4552 893.088 84.5171 890.999C82.579 888.879 82.7304 885.608 84.8199 883.67C86.9397 881.732 90.2103 881.883 92.1484 883.973Z" fill="#653194"/>
<path d="M57.1695 965.011C58.078 966.01 58.0174 967.554 57.018 968.463C56.0187 969.371 54.4743 969.311 53.5658 968.312C52.6573 967.312 52.7178 965.768 53.7172 964.859C54.7165 963.951 56.261 964.042 57.1695 965.011Z" fill="#653194"/>
<path d="M170.944 920.404C171.852 921.403 171.792 922.947 170.792 923.856C169.793 924.764 168.249 924.704 167.34 923.704C166.432 922.705 166.492 921.161 167.492 920.252C168.491 919.344 170.035 919.404 170.944 920.404Z" fill="#653194"/>
<path d="M35.9128 812.202C38.7728 812.202 41.0912 809.883 41.0912 807.023C41.0912 804.164 38.7728 801.845 35.9128 801.845C33.0528 801.845 30.7344 804.164 30.7344 807.023C30.7344 809.883 33.0528 812.202 35.9128 812.202Z" fill="#653194"/>
<path d="M99.445 720.929C102.305 720.929 104.623 718.61 104.623 715.75C104.623 712.89 102.305 710.572 99.445 710.572C96.5851 710.572 94.2666 712.89 94.2666 715.75C94.2666 718.61 96.5851 720.929 99.445 720.929Z" fill="#653194"/>
<path d="M161.646 827.283C162.555 828.282 162.494 829.827 161.495 830.735C160.495 831.644 158.951 831.583 158.042 830.584C157.134 829.584 157.194 828.04 158.194 827.132C159.193 826.223 160.738 826.284 161.646 827.283Z" fill="#653194"/>
<path d="M135.635 798.272C136.973 798.272 138.057 797.187 138.057 795.849C138.057 794.511 136.973 793.426 135.635 793.426C134.297 793.426 133.212 794.511 133.212 795.849C133.212 797.187 134.297 798.272 135.635 798.272Z" fill="#653194"/>
<path d="M183.057 728.318C183.966 729.317 183.905 730.861 182.906 731.77C181.906 732.678 180.362 732.618 179.453 731.619C178.545 730.619 178.606 729.075 179.605 728.166C180.604 727.258 182.149 727.318 183.057 728.318Z" fill="#653194"/>
<path d="M159.499 696.884C159.499 698.216 158.408 699.306 157.076 699.306C155.744 699.306 154.653 698.216 154.653 696.884C154.653 695.551 155.744 694.461 157.076 694.461C158.408 694.431 159.499 695.521 159.499 696.884Z" fill="#653194"/>
<path d="M41.0887 617.391C42.4267 617.391 43.5113 616.306 43.5113 614.968C43.5113 613.63 42.4267 612.545 41.0887 612.545C39.7507 612.545 38.666 613.63 38.666 614.968C38.666 616.306 39.7507 617.391 41.0887 617.391Z" fill="#653194"/>
<path d="M23.192 723.382C23.192 724.714 22.1018 725.804 20.7693 725.804C19.4369 725.804 18.3467 724.714 18.3467 723.382C18.3467 722.049 19.4369 720.959 20.7693 720.959C22.1018 720.959 23.192 722.019 23.192 723.382Z" fill="#653194"/>
<path d="M94.8736 765.808C92.7538 767.746 92.6326 771.017 94.5708 773.137C96.5089 775.256 99.7794 775.378 101.899 773.44C104.019 771.501 104.14 768.231 102.202 766.111C100.264 764.021 96.9934 763.87 94.8736 765.808Z" fill="#653194"/>
<path d="M234.871 816.775C231.994 816.775 229.692 819.106 229.692 821.953C229.692 824.8 232.024 827.132 234.871 827.132C237.748 827.132 240.049 824.8 240.049 821.953C240.049 819.106 237.748 816.775 234.871 816.775Z" fill="#653194"/>
<path d="M15.5603 902.385C12.6834 902.385 10.3818 904.717 10.3818 907.564C10.3818 910.44 12.7136 912.742 15.5603 912.742C18.4069 912.742 20.7387 910.41 20.7387 907.564C20.7387 904.717 18.4372 902.385 15.5603 902.385Z" fill="#653194"/>
<path d="M240.079 757.45C238.746 757.45 237.656 758.54 237.656 759.873C237.656 761.205 238.746 762.295 240.079 762.295C241.411 762.295 242.502 761.205 242.502 759.873C242.502 758.51 241.411 757.45 240.079 757.45Z" fill="#653194"/>
<path d="M239.719 422.216C240.779 424.881 239.476 427.909 236.811 428.969C234.147 430.029 231.118 428.727 230.058 426.062C228.998 423.397 230.301 420.368 232.966 419.308C235.63 418.279 238.628 419.551 239.719 422.216Z" fill="#653194"/>
<path d="M225.452 615.483C226.512 618.148 225.21 621.176 222.545 622.236C219.88 623.296 216.852 621.994 215.792 619.329C214.732 616.664 216.034 613.635 218.699 612.575C221.364 611.516 224.392 612.818 225.452 615.483Z" fill="#653194"/>
<path d="M35.9128 587.834C38.7728 587.834 41.0912 585.516 41.0912 582.656C41.0912 579.796 38.7728 577.477 35.9128 577.477C33.0528 577.477 30.7344 579.796 30.7344 582.656C30.7344 585.516 33.0528 587.834 35.9128 587.834Z" fill="#653194"/>
<path d="M99.445 496.53C102.305 496.53 104.623 494.212 104.623 491.352C104.623 488.492 102.305 486.174 99.445 486.174C96.5851 486.174 94.2666 488.492 94.2666 491.352C94.2666 494.212 96.5851 496.53 99.445 496.53Z" fill="#653194"/>
<path d="M263.883 694.431C263.883 695.763 262.793 696.853 261.461 696.853C260.128 696.853 259.038 695.763 259.038 694.431C259.038 693.098 260.128 692.008 261.461 692.008C262.793 692.008 263.883 693.098 263.883 694.431Z" fill="#653194"/>
<path d="M183.057 503.95C183.966 504.949 183.905 506.494 182.906 507.402C181.906 508.311 180.362 508.25 179.453 507.251C178.545 506.251 178.606 504.707 179.605 503.798C180.604 502.89 182.149 502.951 183.057 503.95Z" fill="#653194"/>
<path d="M72.189 673.566C73.0975 674.565 73.0369 676.11 72.0376 677.018C71.0382 677.926 69.4938 677.866 68.5853 676.867C67.6768 675.867 67.7374 674.323 68.7367 673.414C69.7361 672.506 71.2805 672.566 72.189 673.566Z" fill="#653194"/>
<path d="M159.499 472.486C159.499 473.818 158.408 474.908 157.076 474.908C155.744 474.908 154.653 473.818 154.653 472.486C154.653 471.153 155.744 470.063 157.076 470.063C158.408 470.063 159.499 471.153 159.499 472.486Z" fill="#653194"/>
<path d="M23.192 498.983C23.192 500.316 22.1018 501.406 20.7693 501.406C19.4369 501.406 18.3467 500.316 18.3467 498.983C18.3467 497.651 19.4369 496.561 20.7693 496.561C22.1018 496.561 23.192 497.651 23.192 498.983Z" fill="#653194"/>
<path d="M94.8736 541.44C92.7538 543.379 92.6326 546.649 94.5708 548.769C96.5089 550.889 99.7794 551.01 101.899 549.072C104.019 547.134 104.14 543.863 102.202 541.743C100.264 539.623 96.9934 539.502 94.8736 541.44Z" fill="#653194"/>
<path d="M240.079 533.052C238.746 533.052 237.656 534.142 237.656 535.475C237.656 536.807 238.746 537.897 240.079 537.897C241.411 537.897 242.502 536.807 242.502 535.475C242.502 534.142 241.411 533.052 240.079 533.052Z" fill="#653194"/>
<path d="M146.234 599.614C144.902 599.614 143.812 600.705 143.812 602.037C143.812 603.369 144.902 604.46 146.234 604.46C147.567 604.46 148.657 603.369 148.657 602.037C148.657 600.705 147.567 599.614 146.234 599.614Z" fill="#653194"/>
<path d="M71.434 823.134C70.4346 824.043 70.3741 825.587 71.2826 826.586C72.1911 827.586 73.7355 827.646 74.7348 826.738C75.7342 825.829 75.7948 824.285 74.8863 823.286C73.9475 822.286 72.4333 822.226 71.434 823.134Z" fill="#653194"/>
<path d="M236.205 983.756C233.328 983.756 231.026 986.088 231.026 988.934C231.026 991.781 233.358 994.113 236.205 994.113C239.082 994.113 241.383 991.781 241.383 988.934C241.383 986.088 239.051 983.756 236.205 983.756Z" fill="#653194"/>
<path d="M335.352 955.653C332.475 955.653 330.174 957.985 330.174 960.832C330.174 963.708 332.506 966.01 335.352 966.01C338.229 966.01 340.531 963.678 340.531 960.832C340.531 957.955 338.199 955.653 335.352 955.653Z" fill="#653194"/>
<path d="M139.421 1033.57C138.088 1033.57 136.998 1034.66 136.998 1035.99C136.998 1037.33 138.088 1038.42 139.421 1038.42C140.753 1038.42 141.843 1037.33 141.843 1035.99C141.874 1034.66 140.783 1033.57 139.421 1033.57Z" fill="#653194"/>
<path d="M307.794 1031.15C306.461 1031.15 305.371 1032.24 305.371 1033.57C305.371 1034.9 306.461 1035.99 307.794 1035.99C309.126 1035.99 310.216 1034.9 310.216 1033.57C310.247 1032.24 309.156 1031.15 307.794 1031.15Z" fill="#653194"/>
<path d="M139.421 942.389C138.088 942.389 136.998 943.479 136.998 944.812C136.998 946.144 138.088 947.234 139.421 947.234C140.753 947.234 141.843 946.144 141.843 944.812C141.874 943.479 140.783 942.389 139.421 942.389Z" fill="#653194"/>
<path d="M256.617 931.427C255.285 931.427 254.194 932.517 254.194 933.849C254.194 935.182 255.285 936.272 256.617 936.272C257.949 936.272 259.04 935.182 259.04 933.849C259.04 932.517 257.949 931.427 256.617 931.427Z" fill="#653194"/>
<path d="M1273.31 1021.88C1276.19 1021.88 1278.49 1024.21 1278.49 1027.06C1278.49 1029.94 1276.16 1032.24 1273.31 1032.24C1270.43 1032.24 1268.13 1029.91 1268.13 1027.06C1268.13 1024.18 1270.46 1021.88 1273.31 1021.88Z" fill="#653194"/>
<path d="M1187.22 1000.68C1190.09 1000.68 1192.39 1003.02 1192.39 1005.86C1192.39 1008.71 1190.06 1011.04 1187.22 1011.04C1184.34 1011.04 1182.04 1008.71 1182.04 1005.86C1182.04 1003.02 1184.37 1000.68 1187.22 1000.68Z" fill="#653194"/>
<path d="M1218.1 1038.9C1219.44 1038.9 1220.53 1039.99 1220.53 1041.32C1220.53 1042.66 1219.44 1043.75 1218.1 1043.75C1216.77 1043.75 1215.68 1042.66 1215.68 1041.32C1215.65 1039.99 1216.74 1038.9 1218.1 1038.9Z" fill="#653194"/>
<path d="M1262.14 924.885C1263.47 924.885 1264.56 925.976 1264.56 927.308C1264.56 928.641 1263.47 929.731 1262.14 929.731C1260.8 929.731 1259.71 928.641 1259.71 927.308C1259.68 925.976 1260.77 924.885 1262.14 924.885Z" fill="#653194"/>
<path d="M1328.03 912.772C1328.03 915.649 1330.37 917.951 1333.21 917.951C1336.06 917.951 1338.39 915.619 1338.39 912.772C1338.39 909.895 1336.06 907.594 1333.21 907.594C1330.37 907.594 1328.03 909.895 1328.03 912.772Z" fill="#653194"/>
<path d="M1381.24 805.57C1380.18 808.235 1381.48 811.263 1384.15 812.323C1386.81 813.383 1389.84 812.081 1390.9 809.416C1391.96 806.751 1390.66 803.723 1387.99 802.663C1385.33 801.603 1382.3 802.905 1381.24 805.57Z" fill="#653194"/>
<path d="M1518.45 871.406C1517.39 874.07 1518.69 877.099 1521.36 878.159C1524.02 879.219 1527.05 877.916 1528.11 875.251C1529.17 872.587 1527.87 869.558 1525.21 868.498C1522.54 867.438 1519.51 868.741 1518.45 871.406Z" fill="#653194"/>
<path d="M1465.25 844.635C1464.76 845.877 1465.37 847.3 1466.61 847.785C1467.85 848.269 1469.27 847.663 1469.76 846.422C1470.24 845.18 1469.64 843.757 1468.4 843.272C1467.15 842.758 1465.76 843.394 1465.25 844.635Z" fill="#653194"/>
<path d="M1385.03 867.378C1384.54 868.619 1385.15 870.043 1386.39 870.527C1387.63 871.012 1389.05 870.406 1389.54 869.164C1390.02 867.923 1389.42 866.5 1388.17 866.015C1386.93 865.531 1385.51 866.136 1385.03 867.378Z" fill="#653194"/>
<path d="M1624.05 883.973C1622.11 886.093 1622.26 889.363 1624.35 891.301C1626.47 893.24 1629.74 893.088 1631.68 890.999C1633.62 888.879 1633.47 885.608 1631.38 883.67C1629.29 881.732 1625.99 881.883 1624.05 883.973Z" fill="#653194"/>
<path d="M1659.03 965.011C1658.12 966.01 1658.18 967.554 1659.18 968.463C1660.18 969.371 1661.72 969.311 1662.63 968.312C1663.54 967.312 1663.48 965.768 1662.48 964.859C1661.48 963.951 1659.94 964.042 1659.03 965.011Z" fill="#653194"/>
<path d="M1545.25 920.404C1544.34 921.403 1544.4 922.947 1545.4 923.856C1546.4 924.764 1547.95 924.704 1548.86 923.704C1549.76 922.705 1549.7 921.161 1548.7 920.252C1547.71 919.344 1546.16 919.404 1545.25 920.404Z" fill="#653194"/>
<path d="M1680.32 812.202C1683.18 812.202 1685.5 809.883 1685.5 807.023C1685.5 804.164 1683.18 801.845 1680.32 801.845C1677.46 801.845 1675.14 804.164 1675.14 807.023C1675.14 809.883 1677.46 812.202 1680.32 812.202Z" fill="#653194"/>
<path d="M1616.78 720.929C1619.64 720.929 1621.96 718.61 1621.96 715.75C1621.96 712.89 1619.64 710.572 1616.78 710.572C1613.92 710.572 1611.6 712.89 1611.6 715.75C1611.6 718.61 1613.92 720.929 1616.78 720.929Z" fill="#653194"/>
<path d="M1554.58 827.283C1553.67 828.282 1553.73 829.827 1554.73 830.735C1555.73 831.644 1557.27 831.583 1558.18 830.584C1559.09 829.584 1559.03 828.04 1558.03 827.132C1557.03 826.223 1555.49 826.284 1554.58 827.283Z" fill="#653194"/>
<path d="M1578.14 795.849C1578.14 797.181 1579.23 798.272 1580.56 798.272C1581.9 798.272 1582.99 797.181 1582.99 795.849C1582.99 794.516 1581.9 793.426 1580.56 793.426C1579.23 793.396 1578.14 794.486 1578.14 795.849Z" fill="#653194"/>
<path d="M1614.36 664.874C1614.36 666.207 1615.45 667.297 1616.78 667.297C1618.11 667.297 1619.2 666.207 1619.2 664.874C1619.2 663.542 1618.11 662.452 1616.78 662.452C1615.45 662.452 1614.36 663.542 1614.36 664.874Z" fill="#653194"/>
<path d="M1533.17 728.318C1532.26 729.317 1532.32 730.861 1533.32 731.77C1534.32 732.678 1535.87 732.618 1536.77 731.619C1537.68 730.619 1537.62 729.075 1536.62 728.166C1535.62 727.258 1534.08 727.318 1533.17 728.318Z" fill="#653194"/>
<path d="M1556.73 696.884C1556.73 698.216 1557.82 699.306 1559.15 699.306C1560.48 699.306 1561.57 698.216 1561.57 696.884C1561.57 695.551 1560.48 694.461 1559.15 694.461C1557.82 694.461 1556.73 695.521 1556.73 696.884Z" fill="#653194"/>
<path d="M1672.68 614.968C1672.68 616.3 1673.77 617.391 1675.11 617.391C1676.44 617.391 1677.53 616.3 1677.53 614.968C1677.53 613.635 1676.44 612.545 1675.11 612.545C1673.77 612.545 1672.68 613.635 1672.68 614.968Z" fill="#653194"/>
<path d="M1621.33 765.808C1623.45 767.746 1623.57 771.017 1621.63 773.137C1619.69 775.256 1616.42 775.378 1614.3 773.44C1612.18 771.501 1612.06 768.231 1614 766.111C1615.94 764.021 1619.24 763.87 1621.33 765.808Z" fill="#653194"/>
<path d="M1481.33 827.162C1484.19 827.162 1486.51 824.843 1486.51 821.983C1486.51 819.123 1484.19 816.805 1481.33 816.805C1478.47 816.805 1476.15 819.123 1476.15 821.983C1476.15 824.843 1478.47 827.162 1481.33 827.162Z" fill="#653194"/>
<path d="M1476.15 757.45C1477.48 757.45 1478.57 758.54 1478.57 759.873C1478.57 761.205 1477.48 762.295 1476.15 762.295C1474.81 762.295 1473.72 761.205 1473.72 759.873C1473.69 758.51 1474.78 757.45 1476.15 757.45Z" fill="#653194"/>
<path d="M1644.79 823.134C1645.79 824.043 1645.85 825.587 1644.95 826.586C1644.04 827.586 1642.49 827.646 1641.49 826.738C1640.49 825.829 1640.43 824.285 1641.34 823.286C1642.25 822.286 1643.8 822.226 1644.79 823.134Z" fill="#653194"/>
<path d="M1518.45 593.225C1517.39 595.889 1518.69 598.918 1521.36 599.978C1524.02 601.038 1527.05 599.735 1528.11 597.07C1529.17 594.406 1527.87 591.377 1525.21 590.317C1522.54 589.257 1519.51 590.56 1518.45 593.225Z" fill="#653194"/>
<path d="M1465.25 566.454C1464.76 567.696 1465.37 569.119 1466.61 569.604C1467.85 570.088 1469.27 569.483 1469.76 568.241C1470.24 566.999 1469.64 565.576 1468.4 565.092C1467.15 564.577 1465.76 565.182 1465.25 566.454Z" fill="#653194"/>
<path d="M1624.05 605.792C1622.11 607.912 1622.26 611.182 1624.35 613.121C1626.47 615.059 1629.74 614.907 1631.68 612.818C1633.62 610.698 1633.47 607.427 1631.38 605.489C1629.29 603.551 1625.99 603.672 1624.05 605.792Z" fill="#653194"/>
<path d="M1680.32 534.021C1683.18 534.021 1685.5 531.703 1685.5 528.843C1685.5 525.983 1683.18 523.664 1680.32 523.664C1677.46 523.664 1675.14 525.983 1675.14 528.843C1675.14 531.703 1677.46 534.021 1680.32 534.021Z" fill="#653194"/>
<path d="M1554.58 549.102C1553.67 550.101 1553.73 551.646 1554.73 552.554C1555.73 553.463 1557.27 553.402 1558.18 552.403C1559.09 551.404 1559.03 549.859 1558.03 548.951C1557.03 548.042 1555.49 548.103 1554.58 549.102Z" fill="#653194"/>
<path d="M1485.57 466.641C1484.51 469.306 1485.81 472.334 1488.47 473.394C1491.14 474.454 1494.17 473.152 1495.23 470.487C1496.29 467.822 1494.98 464.794 1492.32 463.734C1489.65 462.674 1486.63 463.976 1485.57 466.641Z" fill="#653194"/>
<path d="M1521.69 422.519C1520.79 423.518 1520.85 425.062 1521.85 425.971C1522.85 426.879 1524.39 426.819 1525.3 425.819C1526.21 424.82 1526.15 423.276 1525.15 422.367C1524.15 421.459 1522.6 421.519 1521.69 422.519Z" fill="#653194"/>
<path d="M1481.33 548.951C1484.19 548.951 1486.51 546.632 1486.51 543.772C1486.51 540.912 1484.19 538.594 1481.33 538.594C1478.47 538.594 1476.15 540.912 1476.15 543.772C1476.15 546.632 1478.47 548.951 1481.33 548.951Z" fill="#653194"/>
<path d="M1476.15 685.588C1479.01 685.588 1481.33 683.27 1481.33 680.41C1481.33 677.55 1479.01 675.231 1476.15 675.231C1473.29 675.231 1470.97 677.55 1470.97 680.41C1470.97 683.27 1473.29 685.588 1476.15 685.588Z" fill="#653194"/>
<path d="M1644.79 544.953C1645.79 545.862 1645.85 547.406 1644.95 548.406C1644.04 549.405 1642.49 549.465 1641.49 548.557C1640.49 547.648 1640.43 546.104 1641.34 545.105C1642.25 544.105 1643.8 544.045 1644.79 544.953Z" fill="#653194"/>
<path d="M1480.02 983.756C1482.9 983.756 1485.2 986.088 1485.2 988.934C1485.2 991.781 1482.87 994.113 1480.02 994.113C1477.15 994.113 1474.84 991.781 1474.84 988.934C1474.84 986.088 1477.15 983.756 1480.02 983.756Z" fill="#653194"/>
<path d="M1380.88 955.653C1383.75 955.653 1386.06 957.985 1386.06 960.832C1386.06 963.708 1383.72 966.01 1380.88 966.01C1378 966.01 1375.7 963.678 1375.7 960.832C1375.7 957.955 1378 955.653 1380.88 955.653Z" fill="#653194"/>
<path d="M1576.78 1033.57C1578.11 1033.57 1579.2 1034.66 1579.2 1035.99C1579.2 1037.33 1578.11 1038.42 1576.78 1038.42C1575.45 1038.42 1574.36 1037.33 1574.36 1035.99C1574.36 1034.66 1575.45 1033.57 1576.78 1033.57Z" fill="#653194"/>
<path d="M1408.41 1031.15C1409.74 1031.15 1410.83 1032.24 1410.83 1033.57C1410.83 1034.9 1409.74 1035.99 1408.41 1035.99C1407.07 1035.99 1405.98 1034.9 1405.98 1033.57C1405.98 1032.24 1407.07 1031.15 1408.41 1031.15Z" fill="#653194"/>
<path d="M1576.78 942.389C1578.11 942.389 1579.2 943.479 1579.2 944.812C1579.2 946.144 1578.11 947.234 1576.78 947.234C1575.45 947.234 1574.36 946.144 1574.36 944.812C1574.36 943.479 1575.45 942.389 1576.78 942.389Z" fill="#653194"/>
<path d="M1459.61 931.427C1460.95 931.427 1462.04 932.517 1462.04 933.849C1462.04 935.182 1460.95 936.272 1459.61 936.272C1458.28 936.272 1457.19 935.182 1457.19 933.849C1457.19 932.517 1458.28 931.427 1459.61 931.427Z" fill="#653194"/>
<path d="M1273.31 52.3676C1276.19 52.3676 1278.49 50.0358 1278.49 47.1892C1278.49 44.3426 1276.16 42.0108 1273.31 42.0108C1270.43 42.0108 1268.13 44.3426 1268.13 47.1892C1268.13 50.0358 1270.46 52.3676 1273.31 52.3676Z" fill="#653194"/>
<path d="M1187.22 73.5658C1190.09 73.5658 1192.39 71.234 1192.39 68.3874C1192.39 65.5105 1190.06 63.209 1187.22 63.209C1184.34 63.209 1182.04 65.5408 1182.04 68.3874C1182.04 71.234 1184.37 73.5658 1187.22 73.5658Z" fill="#653194"/>
<path d="M1218.11 35.3485C1219.44 35.3485 1220.53 34.2583 1220.53 32.9259C1220.53 31.5934 1219.44 30.5032 1218.11 30.5032C1216.77 30.5032 1215.68 31.5934 1215.68 32.9259C1215.68 34.2583 1216.74 35.3485 1218.11 35.3485Z" fill="#653194"/>
<path d="M1262.14 149.334C1263.47 149.334 1264.56 148.244 1264.56 146.912C1264.56 145.579 1263.47 144.489 1262.14 144.489C1260.8 144.489 1259.71 145.579 1259.71 146.912C1259.68 148.244 1260.77 149.334 1262.14 149.334Z" fill="#653194"/>
<path d="M1333.21 166.656C1336.07 166.656 1338.39 164.338 1338.39 161.478C1338.39 158.618 1336.07 156.299 1333.21 156.299C1330.35 156.299 1328.03 158.618 1328.03 161.478C1328.03 164.338 1330.35 166.656 1333.21 166.656Z" fill="#653194"/>
<path d="M1381.24 268.65C1380.18 265.985 1381.48 262.957 1384.15 261.897C1386.81 260.837 1389.84 262.139 1390.9 264.804C1391.96 267.469 1390.66 270.497 1387.99 271.557C1385.33 272.617 1382.3 271.315 1381.24 268.65Z" fill="#653194"/>
<path d="M1518.45 202.814C1517.39 200.149 1518.69 197.121 1521.36 196.061C1524.02 195.001 1527.05 196.303 1528.11 198.968C1529.17 201.633 1527.87 204.662 1525.21 205.721C1522.54 206.781 1519.51 205.479 1518.45 202.814Z" fill="#653194"/>
<path d="M1465.25 229.615C1464.76 228.373 1465.37 226.95 1466.61 226.465C1467.85 225.981 1469.27 226.587 1469.76 227.828C1470.24 229.07 1469.64 230.493 1468.4 230.978C1467.15 231.462 1465.76 230.856 1465.25 229.615Z" fill="#653194"/>
<path d="M1385.03 206.842C1384.54 205.6 1385.15 204.177 1386.39 203.692C1387.63 203.208 1389.05 203.814 1389.54 205.055C1390.02 206.297 1389.42 207.72 1388.17 208.205C1386.93 208.689 1385.51 208.084 1385.03 206.842Z" fill="#653194"/>
<path d="M1603.97 9.97127C1602.04 7.85145 1602.19 4.58087 1604.28 2.64275C1606.4 0.704627 1609.67 0.856041 1611.6 2.94558C1613.54 5.0654 1613.39 8.33598 1611.3 10.2741C1609.18 12.2122 1605.91 12.0911 1603.97 9.97127Z" fill="#653194"/>
<path d="M1624.05 190.247C1622.11 188.127 1622.26 184.856 1624.35 182.918C1626.47 180.98 1629.74 181.132 1631.68 183.221C1633.62 185.341 1633.47 188.612 1631.38 190.55C1629.29 192.518 1625.99 192.367 1624.05 190.247Z" fill="#653194"/>
<path d="M1659.03 109.209C1658.12 108.21 1658.18 106.665 1659.18 105.757C1660.18 104.848 1661.72 104.909 1662.63 105.908C1663.54 106.908 1663.48 108.452 1662.48 109.361C1661.48 110.269 1659.94 110.208 1659.03 109.209Z" fill="#653194"/>
<path d="M1545.25 153.846C1544.34 152.847 1544.4 151.303 1545.4 150.394C1546.4 149.486 1547.95 149.546 1548.86 150.546C1549.76 151.545 1549.7 153.089 1548.7 153.998C1547.71 154.906 1546.16 154.816 1545.25 153.846Z" fill="#653194"/>
<path d="M1680.32 272.375C1683.18 272.375 1685.5 270.056 1685.5 267.196C1685.5 264.336 1683.18 262.018 1680.32 262.018C1677.46 262.018 1675.14 264.336 1675.14 267.196C1675.14 270.056 1677.46 272.375 1680.32 272.375Z" fill="#653194"/>
<path d="M1611.57 358.5C1611.57 355.623 1613.91 353.322 1616.75 353.322C1619.63 353.322 1621.93 355.653 1621.93 358.5C1621.93 361.377 1619.6 363.678 1616.75 363.678C1613.91 363.678 1611.57 361.347 1611.57 358.5Z" fill="#653194"/>
<path d="M1554.58 246.937C1553.67 245.937 1553.73 244.393 1554.73 243.485C1555.73 242.576 1557.27 242.637 1558.18 243.636C1559.09 244.635 1559.03 246.18 1558.03 247.088C1557.03 247.997 1555.49 247.936 1554.58 246.937Z" fill="#653194"/>
<path d="M1578.14 278.401C1578.14 277.069 1579.23 275.978 1580.56 275.978C1581.9 275.978 1582.99 277.069 1582.99 278.401C1582.99 279.733 1581.9 280.824 1580.56 280.824C1579.23 280.824 1578.14 279.733 1578.14 278.401Z" fill="#653194"/>
<path d="M1533.17 345.902C1532.26 344.903 1532.32 343.358 1533.32 342.45C1534.32 341.541 1535.87 341.602 1536.77 342.601C1537.68 343.601 1537.62 345.145 1536.62 346.054C1535.62 346.962 1534.08 346.901 1533.17 345.902Z" fill="#653194"/>
<path d="M1476.78 383.696C1475.88 382.696 1475.94 381.152 1476.94 380.243C1477.94 379.335 1479.48 379.395 1480.39 380.395C1481.3 381.394 1481.24 382.938 1480.24 383.847C1479.24 384.755 1477.69 384.665 1476.78 383.696Z" fill="#653194"/>
<path d="M1556.73 377.366C1556.73 376.034 1557.82 374.944 1559.15 374.944C1560.48 374.944 1561.57 376.034 1561.57 377.366C1561.57 378.699 1560.48 379.789 1559.15 379.789C1557.82 379.789 1556.73 378.699 1556.73 377.366Z" fill="#653194"/>
<path d="M1672.68 459.252C1672.68 457.92 1673.77 456.829 1675.11 456.829C1676.44 456.829 1677.53 457.92 1677.53 459.252C1677.53 460.584 1676.44 461.675 1675.11 461.675C1673.77 461.675 1672.68 460.615 1672.68 459.252Z" fill="#653194"/>
<path d="M1621.33 308.442C1623.45 306.504 1623.57 303.233 1621.63 301.113C1619.69 298.994 1616.42 298.872 1614.3 300.811C1612.18 302.749 1612.06 306.019 1614 308.139C1615.94 310.229 1619.24 310.38 1621.33 308.442Z" fill="#653194"/>
<path d="M1481.33 257.445C1484.19 257.445 1486.51 255.127 1486.51 252.267C1486.51 249.407 1484.19 247.088 1481.33 247.088C1478.47 247.088 1476.15 249.407 1476.15 252.267C1476.15 255.127 1478.47 257.445 1481.33 257.445Z" fill="#653194"/>
<path d="M1583.02 500.164C1585.9 500.164 1588.2 497.833 1588.2 494.986C1588.2 492.109 1585.87 489.808 1583.02 489.808C1580.14 489.808 1577.84 492.139 1577.84 494.986C1577.81 497.833 1580.14 500.164 1583.02 500.164Z" fill="#653194"/>
<path d="M1476.15 316.8C1477.48 316.8 1478.57 315.71 1478.57 314.377C1478.57 313.045 1477.48 311.955 1476.15 311.955C1474.82 311.955 1473.73 313.045 1473.73 314.377C1473.73 315.71 1474.79 316.8 1476.15 316.8Z" fill="#653194"/>
<path d="M1644.79 251.116C1645.79 250.207 1645.85 248.663 1644.95 247.664C1644.04 246.664 1642.49 246.604 1641.49 247.512C1640.49 248.421 1640.43 249.965 1641.34 250.964C1642.25 251.934 1643.8 252.024 1644.79 251.116Z" fill="#653194"/>
<path d="M1480.02 90.4942C1482.9 90.4942 1485.2 88.1624 1485.2 85.3157C1485.2 82.4388 1482.87 80.1373 1480.02 80.1373C1477.15 80.1373 1474.84 82.4691 1474.84 85.3157C1474.81 88.1624 1477.15 90.4942 1480.02 90.4942Z" fill="#653194"/>
<path d="M1381.72 118.505C1384.55 118.045 1386.46 115.384 1386 112.562C1385.54 109.739 1382.88 107.823 1380.06 108.283C1377.24 108.743 1375.32 111.404 1375.78 114.227C1376.24 117.05 1378.9 118.965 1381.72 118.505Z" fill="#653194"/>
<path d="M1576.78 40.6481C1578.11 40.6481 1579.2 39.5579 1579.2 38.2254C1579.2 36.893 1578.11 35.8028 1576.78 35.8028C1575.45 35.8028 1574.36 36.893 1574.36 38.2254C1574.36 39.5579 1575.45 40.6481 1576.78 40.6481Z" fill="#653194"/>
<path d="M1408.41 43.101C1409.74 43.101 1410.83 42.0108 1410.83 40.6784C1410.83 39.3459 1409.74 38.2557 1408.41 38.2557C1407.07 38.2557 1405.98 39.3459 1405.98 40.6784C1405.98 42.0108 1407.07 43.101 1408.41 43.101Z" fill="#653194"/>
<path d="M1576.78 131.831C1578.11 131.831 1579.2 130.74 1579.2 129.408C1579.2 128.075 1578.11 126.985 1576.78 126.985C1575.45 126.985 1574.36 128.075 1574.36 129.408C1574.36 130.74 1575.45 131.831 1576.78 131.831Z" fill="#653194"/>
<path d="M1459.61 142.823C1460.95 142.823 1462.04 141.733 1462.04 140.401C1462.04 139.068 1460.95 137.978 1459.61 137.978C1458.28 137.978 1457.19 139.068 1457.19 140.401C1457.19 141.733 1458.28 142.823 1459.61 142.823Z" fill="#653194"/>
<path d="M442.887 52.3374C445.747 52.3374 448.066 50.0189 448.066 47.1589C448.066 44.299 445.747 41.9805 442.887 41.9805C440.027 41.9805 437.709 44.299 437.709 47.1589C437.709 50.0189 440.027 52.3374 442.887 52.3374Z" fill="#653194"/>
<path d="M528.981 73.5658C526.104 73.5658 523.803 71.234 523.803 68.3874C523.803 65.5105 526.135 63.209 528.981 63.209C531.858 63.209 534.16 65.5408 534.16 68.3874C534.19 71.234 531.858 73.5658 528.981 73.5658Z" fill="#653194"/>
<path d="M498.125 35.3485C496.792 35.3485 495.702 34.2583 495.702 32.9259C495.702 31.5934 496.792 30.5032 498.125 30.5032C499.457 30.5032 500.547 31.5934 500.547 32.9259C500.547 34.2583 499.457 35.3485 498.125 35.3485Z" fill="#653194"/>
<path d="M454.093 149.334C455.431 149.334 456.515 148.25 456.515 146.912C456.515 145.574 455.431 144.489 454.093 144.489C452.755 144.489 451.67 145.574 451.67 146.912C451.67 148.25 452.755 149.334 454.093 149.334Z" fill="#653194"/>
<path d="M383.015 166.656C385.875 166.656 388.194 164.338 388.194 161.478C388.194 158.618 385.875 156.299 383.015 156.299C380.155 156.299 377.837 158.618 377.837 161.478C377.837 164.338 380.155 166.656 383.015 166.656Z" fill="#653194"/>
<path d="M334.957 268.65C336.017 265.985 334.715 262.957 332.05 261.897C329.385 260.837 326.357 262.139 325.297 264.804C324.237 267.469 325.539 270.497 328.204 271.557C330.899 272.617 333.897 271.315 334.957 268.65Z" fill="#653194"/>
<path d="M197.745 202.814C198.805 200.149 197.503 197.121 194.838 196.061C192.173 195.001 189.145 196.303 188.085 198.968C187.025 201.633 188.327 204.662 190.992 205.721C193.687 206.781 196.685 205.479 197.745 202.814Z" fill="#653194"/>
<path d="M250.953 229.615C251.438 228.373 250.832 226.95 249.591 226.465C248.349 225.981 246.926 226.587 246.441 227.828C245.957 229.07 246.562 230.493 247.804 230.978C249.046 231.462 250.469 230.856 250.953 229.615Z" fill="#653194"/>
<path d="M331.203 206.842C331.688 205.6 331.082 204.177 329.841 203.692C328.599 203.208 327.176 203.814 326.691 205.055C326.207 206.297 326.812 207.72 328.054 208.205C329.265 208.689 330.689 208.084 331.203 206.842Z" fill="#653194"/>
<path d="M112.256 9.97127C114.194 7.85145 114.043 4.58087 111.953 2.64275C109.833 0.704627 106.563 0.856041 104.624 2.94558C102.686 5.0654 102.838 8.33598 104.927 10.2741C107.017 12.2122 110.318 12.0911 112.256 9.97127Z" fill="#653194"/>
<path d="M92.1484 190.247C94.0866 188.127 93.9351 184.856 91.8456 182.918C89.7258 180.98 86.4552 181.132 84.5171 183.221C82.579 185.341 82.7304 188.612 84.8199 190.55C86.9397 192.518 90.2103 192.367 92.1484 190.247Z" fill="#653194"/>
<path d="M57.1695 109.209C58.078 108.21 58.0174 106.665 57.018 105.757C56.0187 104.848 54.4743 104.909 53.5658 105.908C52.6573 106.908 52.7178 108.452 53.7172 109.361C54.7165 110.269 56.261 110.208 57.1695 109.209Z" fill="#653194"/>
<path d="M170.944 153.846C171.852 152.847 171.792 151.303 170.792 150.394C169.793 149.486 168.249 149.546 167.34 150.546C166.432 151.545 166.492 153.089 167.492 153.998C168.491 154.906 170.035 154.816 170.944 153.846Z" fill="#653194"/>
<path d="M35.9128 272.375C38.7728 272.375 41.0912 270.056 41.0912 267.196C41.0912 264.336 38.7728 262.018 35.9128 262.018C33.0528 262.018 30.7344 264.336 30.7344 267.196C30.7344 270.056 33.0528 272.375 35.9128 272.375Z" fill="#653194"/>
<path d="M104.623 358.5C104.623 355.623 102.292 353.322 99.445 353.322C96.5681 353.322 94.2666 355.653 94.2666 358.5C94.2666 361.377 96.5984 363.678 99.445 363.678C102.292 363.678 104.623 361.347 104.623 358.5Z" fill="#653194"/>
<path d="M161.646 246.937C162.555 245.937 162.494 244.393 161.495 243.485C160.495 242.576 158.951 242.637 158.042 243.636C157.134 244.635 157.194 246.18 158.194 247.088C159.193 247.997 160.738 247.936 161.646 246.937Z" fill="#653194"/>
<path d="M138.057 278.401C138.057 277.069 136.967 275.978 135.635 275.978C134.302 275.978 133.212 277.069 133.212 278.401C133.212 279.733 134.302 280.824 135.635 280.824C136.967 280.824 138.057 279.733 138.057 278.401Z" fill="#653194"/>
<path d="M183.057 345.902C183.966 344.903 183.905 343.358 182.906 342.45C181.906 341.541 180.362 341.602 179.453 342.601C178.545 343.601 178.606 345.145 179.605 346.054C180.604 346.962 182.149 346.901 183.057 345.902Z" fill="#653194"/>
<path d="M159.499 377.366C159.499 376.034 158.408 374.944 157.076 374.944C155.744 374.944 154.653 376.034 154.653 377.366C154.653 378.699 155.744 379.789 157.076 379.789C158.408 379.789 159.499 378.699 159.499 377.366Z" fill="#653194"/>
<path d="M43.5435 459.252C43.5435 457.92 42.4534 456.829 41.1209 456.829C39.7884 456.829 38.6982 457.92 38.6982 459.252C38.6982 460.584 39.7884 461.675 41.1209 461.675C42.4534 461.675 43.5435 460.615 43.5435 459.252Z" fill="#653194"/>
<path d="M23.192 350.869C23.192 349.536 22.1018 348.446 20.7693 348.446C19.4369 348.446 18.3467 349.536 18.3467 350.869C18.3467 352.201 19.4369 353.291 20.7693 353.291C22.1018 353.291 23.192 352.201 23.192 350.869Z" fill="#653194"/>
<path d="M94.8736 308.442C92.7538 306.504 92.6326 303.233 94.5708 301.113C96.5089 298.994 99.7794 298.872 101.899 300.811C104.019 302.749 104.14 306.019 102.202 308.139C100.264 310.229 96.9934 310.38 94.8736 308.442Z" fill="#653194"/>
<path d="M234.871 257.445C231.994 257.445 229.692 255.113 229.692 252.267C229.692 249.39 232.024 247.088 234.871 247.088C237.748 247.088 240.049 249.42 240.049 252.267C240.079 255.144 237.748 257.445 234.871 257.445Z" fill="#653194"/>
<path d="M240.079 316.8C238.746 316.8 237.656 315.71 237.656 314.377C237.656 313.045 238.746 311.955 240.079 311.955C241.411 311.955 242.502 313.045 242.502 314.377C242.502 315.71 241.411 316.8 240.079 316.8Z" fill="#653194"/>
<path d="M71.434 251.116C70.4346 250.207 70.3741 248.663 71.2826 247.664C72.1911 246.664 73.7355 246.604 74.7348 247.512C75.7342 248.421 75.7948 249.965 74.8863 250.964C73.9475 251.934 72.4333 252.024 71.434 251.116Z" fill="#653194"/>
<path d="M236.205 90.4942C233.328 90.4942 231.026 88.1624 231.026 85.3157C231.026 82.4388 233.358 80.1373 236.205 80.1373C239.082 80.1373 241.383 82.4691 241.383 85.3157C241.383 88.1624 239.051 90.4942 236.205 90.4942Z" fill="#653194"/>
<path d="M335.352 118.567C338.212 118.567 340.531 116.248 340.531 113.388C340.531 110.528 338.212 108.21 335.352 108.21C332.492 108.21 330.174 110.528 330.174 113.388C330.174 116.248 332.492 118.567 335.352 118.567Z" fill="#653194"/>
<path d="M139.421 40.6481C140.759 40.6481 141.843 39.5634 141.843 38.2254C141.843 36.8875 140.759 35.8028 139.421 35.8028C138.083 35.8028 136.998 36.8875 136.998 38.2254C136.998 39.5634 138.083 40.6481 139.421 40.6481Z" fill="#653194"/>
<path d="M307.794 43.101C306.461 43.101 305.371 42.0108 305.371 40.6784C305.371 39.3459 306.461 38.2557 307.794 38.2557C309.126 38.2557 310.216 39.3459 310.216 40.6784C310.216 42.0108 309.156 43.101 307.794 43.101Z" fill="#653194"/>
<path d="M139.421 131.831C140.759 131.831 141.843 130.746 141.843 129.408C141.843 128.07 140.759 126.985 139.421 126.985C138.083 126.985 136.998 128.07 136.998 129.408C136.998 130.746 138.083 131.831 139.421 131.831Z" fill="#653194"/>
<path d="M256.617 142.823C255.285 142.823 254.194 141.733 254.194 140.401C254.194 139.068 255.285 137.978 256.617 137.978C257.949 137.978 259.04 139.068 259.04 140.401C259.04 141.733 257.949 142.823 256.617 142.823Z" fill="#653194"/>
</svg>
